<mxfile host="app.diagrams.net" agent="Mozilla/5.0 (Windows NT 10.0; Win64; x64) AppleWebKit/537.36 (KHTML, like Gecko) Chrome/134.0.0.0 Safari/537.36" version="26.1.1">
  <diagram name="Page-1" id="8OMrN8JgvEGGaY8blV8X">
    <mxGraphModel dx="2181" dy="600" grid="1" gridSize="10" guides="1" tooltips="1" connect="1" arrows="1" fold="1" page="1" pageScale="1" pageWidth="827" pageHeight="1169" math="0" shadow="0">
      <root>
        <mxCell id="0" />
        <mxCell id="1" parent="0" />
        <mxCell id="3p3-Dvi5GFgsdkGWm4ts-1" value="" style="rounded=0;whiteSpace=wrap;html=1;" parent="1" vertex="1">
          <mxGeometry x="220" y="60" width="460" height="560" as="geometry" />
        </mxCell>
        <mxCell id="3p3-Dvi5GFgsdkGWm4ts-2" value="Lovski čuvaj" style="shape=umlActor;verticalLabelPosition=bottom;verticalAlign=top;html=1;outlineConnect=0;" parent="1" vertex="1">
          <mxGeometry x="70" y="130" width="30" height="60" as="geometry" />
        </mxCell>
        <mxCell id="movm5xHroOJc-YoSEQmm-1" style="edgeStyle=orthogonalEdgeStyle;shape=link;rounded=0;orthogonalLoop=1;jettySize=auto;html=1;exitX=0.5;exitY=0.5;exitDx=0;exitDy=0;exitPerimeter=0;entryX=0.5;entryY=0.5;entryDx=0;entryDy=0;entryPerimeter=0;" edge="1" parent="1" source="3p3-Dvi5GFgsdkGWm4ts-3" target="3p3-Dvi5GFgsdkGWm4ts-4">
          <mxGeometry relative="1" as="geometry" />
        </mxCell>
        <mxCell id="3p3-Dvi5GFgsdkGWm4ts-3" value="Starešina" style="shape=umlActor;verticalLabelPosition=bottom;verticalAlign=top;html=1;outlineConnect=0;" parent="1" vertex="1">
          <mxGeometry y="250" width="30" height="60" as="geometry" />
        </mxCell>
        <mxCell id="3p3-Dvi5GFgsdkGWm4ts-4" value="Gospodar" style="shape=umlActor;verticalLabelPosition=bottom;verticalAlign=top;html=1;outlineConnect=0;" parent="1" vertex="1">
          <mxGeometry x="70" y="250" width="30" height="60" as="geometry" />
        </mxCell>
        <mxCell id="3p3-Dvi5GFgsdkGWm4ts-5" value="&lt;b&gt;ČM.PU.ZZP&lt;/b&gt; -&amp;nbsp;&lt;div&gt;Zajem zvočnih posnetkov in lokacije&lt;/div&gt;" style="ellipse;whiteSpace=wrap;html=1;" parent="1" vertex="1">
          <mxGeometry x="350" y="210" width="150" height="70" as="geometry" />
        </mxCell>
        <mxCell id="3p3-Dvi5GFgsdkGWm4ts-6" value="" style="endArrow=classic;html=1;rounded=0;exitX=1;exitY=0.3333333333333333;exitDx=0;exitDy=0;exitPerimeter=0;" parent="1" source="3p3-Dvi5GFgsdkGWm4ts-2" target="3p3-Dvi5GFgsdkGWm4ts-5" edge="1">
          <mxGeometry width="50" height="50" relative="1" as="geometry">
            <mxPoint x="410" y="360" as="sourcePoint" />
            <mxPoint x="460" y="310" as="targetPoint" />
          </mxGeometry>
        </mxCell>
        <mxCell id="3p3-Dvi5GFgsdkGWm4ts-7" value="&lt;b&gt;ČM.PU.ZFVL&lt;/b&gt; -&amp;nbsp;&lt;div&gt;Zajem fotografij, video posnetkov in lokacije&lt;/div&gt;" style="ellipse;whiteSpace=wrap;html=1;" parent="1" vertex="1">
          <mxGeometry x="355" y="330" width="135" height="70" as="geometry" />
        </mxCell>
        <mxCell id="3p3-Dvi5GFgsdkGWm4ts-8" value="" style="endArrow=classic;html=1;rounded=0;entryX=0;entryY=0.5;entryDx=0;entryDy=0;" parent="1" target="3p3-Dvi5GFgsdkGWm4ts-7" edge="1">
          <mxGeometry width="50" height="50" relative="1" as="geometry">
            <mxPoint x="100" y="150" as="sourcePoint" />
            <mxPoint x="311" y="136" as="targetPoint" />
          </mxGeometry>
        </mxCell>
        <mxCell id="3p3-Dvi5GFgsdkGWm4ts-9" value="Mobilna aplikacija" style="text;html=1;align=center;verticalAlign=middle;whiteSpace=wrap;rounded=0;" parent="1" vertex="1">
          <mxGeometry x="220" y="30" width="110" height="30" as="geometry" />
        </mxCell>
        <mxCell id="3p3-Dvi5GFgsdkGWm4ts-10" value="&lt;b&gt;ČM.PU- PPL&lt;/b&gt; -&amp;nbsp;&lt;div&gt;Pregled prisotnosti lovcev in čuvajev na lovišču&lt;/div&gt;" style="ellipse;whiteSpace=wrap;html=1;" parent="1" vertex="1">
          <mxGeometry x="345" y="430" width="145" height="70" as="geometry" />
        </mxCell>
        <mxCell id="3p3-Dvi5GFgsdkGWm4ts-11" value="" style="endArrow=classic;html=1;rounded=0;exitX=1;exitY=0.3333333333333333;exitDx=0;exitDy=0;exitPerimeter=0;entryX=0;entryY=0.5;entryDx=0;entryDy=0;" parent="1" source="3p3-Dvi5GFgsdkGWm4ts-4" target="3p3-Dvi5GFgsdkGWm4ts-10" edge="1">
          <mxGeometry width="50" height="50" relative="1" as="geometry">
            <mxPoint x="410" y="360" as="sourcePoint" />
            <mxPoint x="460" y="310" as="targetPoint" />
          </mxGeometry>
        </mxCell>
        <mxCell id="3p3-Dvi5GFgsdkGWm4ts-13" value="&lt;b&gt;ČM.PU.BVI&lt;/b&gt; -&amp;nbsp;&lt;div&gt;Beleženje vstopa v lovišče in izstopa iz lovišča&lt;/div&gt;" style="ellipse;whiteSpace=wrap;html=1;" parent="1" vertex="1">
          <mxGeometry x="355" y="110" width="155" height="70" as="geometry" />
        </mxCell>
        <mxCell id="3p3-Dvi5GFgsdkGWm4ts-14" value="" style="endArrow=classic;html=1;rounded=0;entryX=0;entryY=0.5;entryDx=0;entryDy=0;" parent="1" target="3p3-Dvi5GFgsdkGWm4ts-13" edge="1">
          <mxGeometry width="50" height="50" relative="1" as="geometry">
            <mxPoint x="100" y="150" as="sourcePoint" />
            <mxPoint x="321" y="217" as="targetPoint" />
          </mxGeometry>
        </mxCell>
        <mxCell id="3p3-Dvi5GFgsdkGWm4ts-15" value="" style="endArrow=classic;html=1;rounded=0;exitX=0.5;exitY=0;exitDx=0;exitDy=0;entryX=0.5;entryY=1;entryDx=0;entryDy=0;" parent="1" source="3p3-Dvi5GFgsdkGWm4ts-7" target="3p3-Dvi5GFgsdkGWm4ts-5" edge="1">
          <mxGeometry width="50" height="50" relative="1" as="geometry">
            <mxPoint x="420" y="330" as="sourcePoint" />
            <mxPoint x="470" y="280" as="targetPoint" />
          </mxGeometry>
        </mxCell>
        <mxCell id="3p3-Dvi5GFgsdkGWm4ts-16" value="&amp;lt;&amp;lt;extend&amp;gt;&amp;gt;" style="edgeLabel;html=1;align=center;verticalAlign=middle;resizable=0;points=[];" parent="3p3-Dvi5GFgsdkGWm4ts-15" vertex="1" connectable="0">
          <mxGeometry y="-2" relative="1" as="geometry">
            <mxPoint as="offset" />
          </mxGeometry>
        </mxCell>
      </root>
    </mxGraphModel>
  </diagram>
</mxfile>
